<?xml version="1.0" standalone="no"?>
<!DOCTYPE svg PUBLIC "-//W3C//DTD SVG 20010904//EN"
 "http://www.w3.org/TR/2001/REC-SVG-20010904/DTD/svg10.dtd">
<svg version="1.0" xmlns="http://www.w3.org/2000/svg"
 width="585.000000pt" height="585.000000pt" viewBox="0 0 585.000000 585.000000"
 preserveAspectRatio="xMidYMid meet">
<metadata>
Created by potrace 1.14, written by Peter Selinger 2001-2017
</metadata>
<g transform="translate(0.000000,585.000000) scale(0.100000,-0.100000)"
fill="#000000" stroke="none">
<path d="M3064 5770 c-87 -93 -124 -138 -124 -148 -1 -4 -14 -23 -30 -42 -17
-19 -30 -40 -30 -47 0 -7 -4 -13 -8 -13 -5 0 -14 -10 -20 -22 -6 -13 -27 -51
-46 -85 -19 -35 -32 -63 -28 -63 4 0 2 -4 -4 -8 -11 -7 -76 -136 -74 -147 0
-3 -6 -13 -15 -21 -8 -9 -13 -19 -11 -23 3 -4 -5 -19 -17 -34 -22 -27 -45 -34
-147 -43 -78 -8 -105 -11 -105 -14 0 -1 -11 -3 -25 -5 -33 -4 -62 -11 -129
-31 -31 -9 -63 -17 -71 -19 -33 -7 -211 -80 -302 -125 -53 -27 -99 -46 -102
-42 -3 3 -6 1 -6 -5 0 -10 -49 -38 -62 -35 -5 1 -8 -3 -8 -8 0 -6 -12 -16 -27
-23 -38 -17 -117 -68 -121 -78 -2 -5 -8 -9 -14 -9 -5 0 -24 -11 -42 -25 -18
-14 -38 -25 -45 -25 -7 0 -9 -4 -6 -10 3 -5 -1 -10 -9 -10 -9 0 -16 -4 -16 -9
0 -5 -9 -12 -19 -16 -10 -3 -30 -16 -42 -28 -13 -13 -51 -45 -84 -72 -93 -78
-345 -335 -327 -335 2 0 -10 -14 -27 -32 -17 -17 -31 -35 -31 -39 0 -4 -6 -14
-13 -21 -7 -7 -30 -38 -50 -68 -20 -30 -41 -59 -45 -65 -4 -5 -17 -26 -28 -45
-10 -19 -21 -37 -24 -40 -3 -3 -18 -30 -34 -60 -16 -30 -34 -58 -40 -62 -6 -4
-7 -8 -2 -8 5 0 4 -6 -2 -12 -6 -7 -11 -17 -13 -23 -1 -5 -15 -39 -31 -75 -44
-98 -46 -102 -59 -145 -7 -22 -16 -44 -20 -50 -5 -8 -20 -61 -24 -85 0 -3 -3
-9 -6 -15 -4 -5 -10 -28 -14 -50 -5 -22 -9 -44 -11 -50 -14 -48 -33 -165 -34
-200 -5 -301 -4 -733 3 -742 5 -7 4 -20 -2 -31 -6 -11 -8 -22 -4 -26 3 -3 7
-20 9 -38 2 -31 16 -103 30 -158 3 -14 7 -34 9 -45 2 -11 4 -22 6 -25 1 -3 3
-9 4 -15 2 -5 4 -12 5 -15 1 -3 3 -16 6 -30 2 -14 7 -32 11 -40 3 -8 7 -19 8
-25 9 -40 66 -218 75 -234 6 -12 8 -25 5 -30 -3 -5 1 -11 7 -13 7 -3 13 -11
13 -19 0 -13 64 -148 75 -159 3 -3 14 -22 25 -42 11 -21 23 -38 28 -38 4 0 5
-4 2 -10 -3 -5 -1 -10 4 -10 6 0 11 -6 11 -14 0 -8 3 -16 8 -18 4 -1 27 -32
52 -68 54 -78 68 -97 97 -125 13 -12 23 -26 23 -30 0 -4 11 -18 26 -31 14 -13
23 -24 20 -24 -2 0 36 -42 85 -92 49 -51 89 -96 89 -100 0 -5 3 -7 8 -6 4 2
30 -19 57 -45 76 -72 87 -81 135 -118 25 -18 50 -38 56 -44 6 -5 22 -17 34
-25 13 -8 32 -23 42 -32 10 -10 18 -16 18 -13 0 3 29 -15 64 -39 36 -24 74
-47 85 -51 12 -3 21 -11 21 -16 0 -6 5 -7 10 -4 6 3 10 2 10 -4 0 -6 11 -13
25 -17 14 -3 25 -10 25 -15 0 -5 4 -9 10 -9 5 0 55 -23 111 -50 56 -28 105
-50 109 -50 4 0 29 -10 56 -22 27 -12 52 -22 56 -23 3 0 10 -3 14 -7 4 -5 17
-8 29 -8 11 0 26 -5 33 -12 7 -7 12 -9 12 -5 0 4 14 1 30 -8 17 -9 30 -13 30
-11 0 3 11 1 25 -4 25 -10 62 -18 100 -24 11 -2 20 -4 20 -5 0 -3 31 -9 85
-17 25 -3 48 -8 53 -11 4 -2 7 0 7 6 0 6 9 8 23 3 29 -10 559 -8 575 2 6 4 12
3 12 -2 0 -5 7 -9 15 -9 8 0 15 3 15 6 0 3 30 6 68 7 57 1 127 9 127 14 0 1 9
3 20 5 11 3 56 14 100 25 44 12 85 22 90 24 6 1 15 4 20 7 14 8 68 23 78 21 4
-1 7 3 7 8 0 5 3 9 8 8 8 -3 100 32 168 63 22 11 46 19 52 19 7 0 12 4 12 10
0 5 3 9 8 9 14 -3 72 23 72 32 0 5 9 9 20 9 11 0 20 5 20 12 0 6 3 9 6 5 3 -3
29 9 57 26 53 32 86 51 145 82 17 10 32 21 32 26 0 5 5 9 12 9 6 0 26 11 44
25 18 14 36 25 39 25 4 0 20 10 35 22 15 13 37 30 50 38 12 8 33 26 46 40 13
14 24 22 24 18 0 -4 39 33 88 81 74 75 114 118 212 231 8 9 20 23 25 32 36 53
80 108 88 108 4 0 6 4 3 8 -3 5 3 18 12 28 30 33 64 84 55 84 -4 0 0 5 10 11
9 6 15 14 12 18 -2 5 4 16 15 26 11 10 20 24 20 32 0 7 4 13 10 13 5 0 9 3 8
8 -1 4 13 34 32 67 19 33 33 62 32 64 -2 2 0 7 5 10 11 8 43 70 43 84 0 6 7
18 16 28 8 9 16 26 17 38 1 11 6 21 11 21 5 0 6 3 3 7 -4 3 -3 11 3 17 15 19
69 173 63 180 -4 3 -2 6 4 6 6 0 14 17 18 37 4 21 10 42 13 48 4 5 7 15 8 20
1 6 8 30 15 55 7 25 13 47 14 50 6 25 16 71 20 99 3 19 8 38 11 42 2 4 0 10
-6 14 -6 4 -7 12 -3 18 4 7 9 55 10 107 1 52 3 97 3 100 3 24 -2 523 -6 541
-2 13 -7 44 -10 69 -3 25 -10 51 -16 58 -6 7 -8 15 -5 18 3 3 -1 29 -10 57 -8
28 -16 59 -18 69 -11 55 -95 270 -110 280 -5 4 -6 8 -2 8 15 0 -18 27 -43 36
-44 14 -51 13 -81 -14 -26 -23 -29 -31 -25 -68 4 -37 28 -117 56 -189 8 -21
34 -105 36 -117 1 -5 2 -9 3 -10 2 -2 4 -14 7 -28 2 -14 9 -37 15 -52 6 -15 9
-34 5 -43 -3 -8 -2 -15 3 -15 4 0 8 -6 9 -12 0 -7 3 -29 7 -48 21 -125 26
-192 27 -375 0 -159 -3 -217 -18 -305 -3 -19 -7 -46 -9 -60 -2 -14 -6 -36 -9
-50 -10 -44 -17 -75 -20 -85 -1 -5 -8 -36 -16 -67 -7 -32 -17 -58 -22 -58 -5
0 -7 -4 -3 -10 11 -18 -120 -337 -185 -450 -8 -14 -14 -28 -15 -31 0 -3 -18
-34 -40 -69 -22 -35 -39 -68 -38 -72 2 -4 -1 -8 -5 -8 -12 0 -62 -79 -62 -96
0 -9 -4 -13 -9 -9 -5 3 -12 -3 -16 -14 -3 -10 -19 -33 -35 -50 -17 -17 -30
-33 -30 -36 0 -3 0 -10 0 -16 0 -5 -4 -7 -10 -4 -5 3 -10 0 -10 -7 0 -7 -22
-37 -49 -66 -27 -28 -48 -52 -46 -52 7 0 -160 -163 -210 -205 -26 -22 -53 -44
-59 -50 -35 -31 -84 -63 -90 -58 -3 4 -6 1 -6 -4 0 -11 -93 -74 -106 -72 -4 0
-10 -3 -13 -8 -8 -11 -42 -32 -63 -39 -10 -4 -18 -11 -18 -16 0 -5 -4 -7 -9
-3 -5 3 -13 1 -16 -5 -4 -6 -37 -25 -73 -42 -37 -17 -70 -35 -73 -40 -3 -5
-16 -10 -27 -11 -12 -1 -22 -4 -22 -8 0 -4 -10 -10 -22 -14 -13 -4 -25 -8 -28
-9 -3 -2 -27 -13 -54 -25 -27 -12 -72 -29 -100 -38 -28 -9 -55 -19 -61 -23 -5
-4 -26 -11 -45 -16 -19 -4 -41 -9 -47 -11 -7 -2 -21 -5 -30 -7 -10 -3 -19 -5
-20 -6 -2 -2 -6 -3 -10 -4 -60 -14 -121 -29 -133 -33 -8 -3 -35 -7 -60 -9 -25
-2 -61 -7 -80 -9 -19 -3 -53 -7 -75 -8 -22 -1 -44 -5 -50 -8 -16 -9 -410 2
-410 11 0 1 -11 4 -25 5 -114 16 -193 34 -315 71 -33 10 -63 19 -67 20 -5 1
-10 3 -13 4 -3 1 -9 4 -15 5 -5 1 -12 4 -15 5 -3 1 -8 3 -12 4 -5 1 -25 10
-47 19 -21 9 -40 17 -42 17 -11 0 -219 105 -222 112 -2 4 -12 8 -23 8 -10 0
-19 5 -19 10 0 6 -7 10 -15 10 -8 0 -15 5 -15 10 0 6 -4 10 -10 10 -13 0 -123
70 -132 84 -5 7 -8 7 -8 1 0 -6 -3 -6 -8 0 -4 6 -40 35 -79 64 -40 30 -73 58
-73 62 0 5 -4 9 -10 9 -5 0 -19 8 -31 18 -49 42 -329 325 -329 333 0 5 -15 24
-34 44 -19 19 -31 35 -28 35 4 0 2 4 -4 8 -5 4 -30 36 -55 72 -24 36 -47 67
-52 68 -4 2 -5 8 -1 13 3 5 1 9 -4 9 -5 0 -15 13 -22 30 -7 16 -16 30 -20 30
-4 0 -11 12 -15 27 -3 15 -10 30 -13 33 -17 13 -117 250 -106 250 3 0 -1 10
-8 23 -6 12 -12 29 -13 37 -1 8 -9 39 -18 68 -9 28 -13 52 -10 52 3 0 0 7 -7
15 -7 8 -10 15 -7 15 3 0 0 21 -8 48 -7 26 -16 61 -19 77 -2 17 -11 65 -20
109 -9 43 -13 83 -10 87 3 5 1 9 -3 9 -5 0 -10 10 -11 23 -6 57 -9 567 -3 567
3 0 6 21 7 48 1 46 7 93 18 142 3 14 8 39 10 55 2 17 9 42 15 58 6 15 8 27 6
27 -3 0 1 16 9 35 8 19 13 35 11 35 -5 0 46 148 71 205 10 22 18 42 19 45 0 3
11 26 22 53 12 26 23 51 23 55 1 4 9 15 18 26 9 10 15 19 13 20 -3 0 15 34 40
75 24 40 49 81 54 90 30 50 130 181 138 181 6 0 8 3 4 6 -3 4 -1 12 6 19 7 6
40 44 75 83 87 97 112 124 112 119 0 -2 27 22 60 55 33 32 60 56 60 53 0 -2
16 11 35 30 19 19 37 35 40 35 5 0 36 24 60 48 8 6 16 12 19 12 5 0 80 53 113
80 7 6 17 10 23 10 5 0 10 5 10 10 0 6 7 10 16 10 9 0 22 7 28 14 6 8 18 16
26 18 8 2 23 11 32 21 9 10 19 18 23 17 10 -2 65 25 65 32 0 5 9 8 20 8 11 0
20 4 20 10 0 5 3 9 8 8 4 0 41 15 83 34 42 20 100 44 130 55 30 10 57 22 60
26 3 5 9 8 13 7 9 -2 69 11 81 18 6 4 19 8 30 10 29 5 50 10 50 12 0 3 52 13
78 14 15 0 27 3 27 6 0 3 39 6 86 7 143 4 193 11 209 27 8 8 15 18 15 21 0 7
26 69 41 97 5 10 9 22 9 28 0 12 100 222 109 230 3 3 16 25 29 50 36 72 69
124 81 128 6 2 11 9 11 15 0 11 30 48 91 115 12 12 28 22 36 22 18 0 82 -66
103 -106 8 -16 28 -51 44 -79 15 -27 30 -54 31 -60 1 -5 10 -28 19 -50 56
-135 60 -139 104 -138 6 1 12 -2 12 -6 0 -3 46 -7 103 -7 137 -2 237 -8 237
-14 0 -3 12 -6 28 -7 43 -2 77 -9 90 -17 7 -4 12 -5 12 -1 0 3 15 -1 33 -8 17
-8 37 -15 42 -16 43 -8 63 -14 80 -22 24 -10 78 -32 85 -33 21 -5 110 -51 110
-58 0 -4 6 -8 13 -8 7 0 42 -21 77 -46 68 -50 114 -62 143 -36 9 8 17 12 17 8
0 -4 11 3 25 16 40 38 58 50 150 100 33 18 63 32 67 30 4 -1 8 2 8 8 0 6 3 9
8 8 4 -1 20 4 35 10 43 18 95 22 106 8 5 -6 11 -24 13 -38 2 -15 7 -30 10 -34
6 -5 -1 -35 -12 -54 -2 -3 2 -15 9 -27 8 -17 9 -28 1 -43 -8 -14 -8 -20 0 -20
6 0 8 -4 5 -10 -11 -18 -14 -50 -4 -55 5 -4 5 -13 0 -23 -5 -9 -11 -51 -15
-92 -6 -75 -10 -104 -23 -170 -4 -19 -8 -46 -9 -60 -1 -14 -3 -25 -4 -25 -2 0
-5 -14 -14 -55 -14 -65 -21 -90 -29 -110 -3 -8 -20 -58 -38 -110 -17 -52 -54
-141 -80 -197 -27 -56 -49 -107 -49 -113 0 -5 -5 -10 -11 -10 -5 0 -8 -4 -4
-9 3 -5 -2 -16 -10 -24 -8 -9 -15 -20 -15 -26 0 -6 -5 -11 -11 -11 -5 0 -7 -4
-4 -10 3 -5 1 -10 -6 -10 -7 0 -10 -3 -6 -6 3 -3 -2 -14 -11 -23 -28 -30 -52
-61 -47 -61 5 0 -159 -163 -194 -192 -12 -10 -25 -18 -31 -18 -5 0 -10 -5 -10
-10 0 -6 -3 -9 -7 -8 -5 1 -18 -3 -29 -10 -12 -6 -24 -8 -28 -5 -3 3 -6 2 -6
-4 0 -10 -59 -38 -100 -49 -140 -36 -240 -49 -240 -30 0 5 -7 3 -15 -4 -8 -6
-18 -10 -22 -7 -4 3 -33 8 -63 11 -55 6 -95 13 -95 16 0 2 -15 5 -55 13 -14 3
-42 12 -62 20 -20 8 -39 13 -42 9 -3 -3 -6 -1 -6 4 0 5 -9 10 -20 11 -25 2
-254 112 -258 124 -2 5 -7 7 -12 4 -5 -3 -16 2 -24 11 -9 8 -16 12 -16 8 0 -3
-6 -2 -12 4 -20 16 -88 32 -88 21 0 -6 -4 -7 -10 -4 -5 3 -10 1 -10 -5 0 -6
-4 -9 -9 -6 -11 7 -28 -33 -26 -64 3 -40 14 -58 63 -93 60 -42 232 -131 239
-123 4 3 13 0 22 -7 9 -8 32 -19 51 -26 19 -7 44 -16 55 -21 62 -24 153 -50
173 -50 12 0 22 -4 22 -8 0 -4 10 -9 23 -9 49 -4 122 -11 122 -13 0 -1 30 -2
68 -3 37 -1 67 0 67 3 0 3 21 5 48 6 26 1 58 4 72 7 14 3 36 9 50 12 14 3 30
7 35 8 6 2 16 6 23 10 6 5 12 6 12 2 0 -3 13 1 29 9 16 9 31 12 35 9 3 -4 6
-1 6 6 0 7 5 9 10 6 6 -3 10 -1 10 5 0 6 4 9 9 6 5 -3 14 1 21 9 7 8 15 13 19
11 3 -2 25 9 49 25 23 16 45 29 49 29 3 0 18 13 34 29 15 16 29 27 31 25 6 -5
146 141 188 196 19 25 37 47 40 50 3 3 11 17 19 33 8 15 18 27 23 27 5 0 6 5
3 10 -3 6 -3 10 2 10 4 0 14 15 22 33 8 17 17 34 21 37 6 4 88 164 90 175 2
11 31 82 41 98 5 10 7 22 4 27 -4 6 -2 10 3 10 6 0 13 17 17 38 4 20 10 42 15
47 4 6 11 24 14 40 3 17 14 59 24 95 10 36 19 68 20 73 1 4 2 8 3 10 2 5 7 34
13 67 3 19 8 49 12 65 3 17 7 46 9 65 2 19 4 35 5 35 3 0 11 60 15 115 12 142
6 310 -15 389 -5 19 -7 38 -5 42 3 4 2 9 -2 11 -5 1 -16 19 -26 39 -27 53 -76
76 -162 74 -65 -2 -163 -22 -175 -36 -3 -3 -18 -9 -34 -13 -17 -4 -44 -17 -60
-29 -17 -12 -33 -21 -36 -21 -6 1 -93 -49 -125 -71 -17 -12 -24 -12 -52 2 -18
8 -33 19 -33 24 0 5 -9 9 -20 9 -11 0 -20 5 -20 10 0 6 -9 10 -19 10 -11 0
-21 4 -23 8 -9 24 -338 137 -423 147 -16 2 -30 4 -30 5 0 6 -134 21 -202 23
-34 1 -65 5 -68 9 -4 4 -16 3 -26 -2 -12 -7 -20 -7 -24 0 -4 6 -11 8 -16 5 -8
-6 -13 8 -10 28 0 4 -3 7 -9 7 -5 0 -10 5 -10 11 0 18 -53 119 -62 119 -5 0
-6 4 -3 10 3 5 -3 20 -14 32 -12 12 -21 28 -21 35 0 7 -4 13 -8 13 -5 0 -15
12 -23 27 -8 15 -38 53 -67 84 l-54 57 -103 1 -102 2 -29 -31z"/>
<path d="M3080 4368 c0 -5 -4 -7 -8 -4 -11 7 -39 -44 -37 -69 2 -27 21 -72 35
-80 5 -3 8 -11 5 -16 -4 -5 1 -9 9 -9 8 0 18 -9 21 -20 3 -11 9 -20 13 -20 4
0 19 -11 34 -24 14 -14 29 -22 32 -19 3 4 6 2 6 -4 0 -13 74 -45 110 -48 14
-1 25 -3 25 -4 0 -2 21 -4 48 -5 28 -1 47 2 47 8 0 7 3 6 8 -1 5 -8 13 -9 22
-3 8 6 25 10 38 10 15 0 21 4 16 12 -4 6 -3 8 3 5 11 -7 63 14 63 26 0 4 7 7
15 7 8 0 14 3 14 8 -1 4 0 9 1 12 8 22 7 46 -3 52 -9 6 -8 8 2 8 10 0 5 10
-14 30 -15 16 -32 27 -37 24 -4 -3 -8 -1 -8 4 0 13 -39 8 -84 -11 -72 -32
-161 -17 -214 34 -18 18 -30 34 -27 37 3 3 -4 12 -15 19 -11 8 -18 18 -15 23
3 4 -5 11 -18 15 -34 11 -87 12 -87 3z"/>
<path d="M4093 4105 c-11 -8 -26 -28 -31 -45 -9 -25 -7 -37 14 -77 26 -49 91
-116 104 -108 5 3 11 -2 14 -11 3 -8 10 -12 16 -9 5 3 10 1 10 -6 0 -7 3 -10
6 -6 3 3 22 0 42 -7 66 -23 214 -8 232 23 5 9 10 13 10 8 0 -13 50 24 62 47
15 28 19 66 7 66 -6 0 -8 4 -5 8 3 5 -5 18 -18 29 -26 23 -66 36 -66 21 0 -5
-4 -7 -9 -3 -5 3 -29 -5 -52 -17 -24 -12 -59 -21 -83 -21 -44 1 -113 33 -108
52 1 6 -4 11 -11 11 -7 0 -17 10 -22 23 -6 12 -16 21 -23 20 -7 -2 -12 2 -12
7 0 15 -53 12 -77 -5z"/>
</g>
</svg>
